<?xml version="1.0" encoding="UTF-8" standalone="no"?>
<!DOCTYPE svg PUBLIC "-//W3C//DTD SVG 1.1//EN"
 "http://www.w3.org/Graphics/SVG/1.1/DTD/svg11.dtd">
<!-- Generated by graphviz version 12.1.1 (20240910.0053)
 -->
<!-- Pages: 1 -->
<svg width="365pt" height="188pt"
 viewBox="0.00 0.00 365.25 188.00" xmlns="http://www.w3.org/2000/svg" xmlns:xlink="http://www.w3.org/1999/xlink">
<g id="graph0" class="graph" transform="scale(1 1) rotate(0) translate(4 184)">
<polygon fill="white" stroke="none" points="-4,4 -4,-184 361.25,-184 361.25,4 -4,4"/>
<!-- &#45;5805978610987507951 -->
<g id="node1" class="node">
<title>&#45;5805978610987507951</title>
<polygon fill="none" stroke="black" points="258.62,-180 98.62,-180 98.62,-144 258.62,-144 258.62,-180"/>
<text text-anchor="middle" x="178.62" y="-153.5" font-family="Helvetica,sans-Serif" font-size="20.00">Sum(Projection)</text>
</g>
<!-- &#45;8724881498436001233 -->
<g id="node2" class="node">
<title>&#45;8724881498436001233</title>
<polygon fill="none" stroke="black" points="357.25,-108 0,-108 0,-72 357.25,-72 357.25,-108"/>
<text text-anchor="middle" x="178.62" y="-81.5" font-family="Helvetica,sans-Serif" font-size="20.00">Projection(ReadCSV, [&#39;total_bill&#39;, &#39;sex&#39;])</text>
</g>
<!-- &#45;8724881498436001233&#45;&gt;&#45;5805978610987507951 -->
<g id="edge1" class="edge">
<title>&#45;8724881498436001233&#45;&gt;&#45;5805978610987507951</title>
<path fill="none" stroke="black" d="M178.62,-108.3C178.62,-115.59 178.62,-124.27 178.62,-132.46"/>
<polygon fill="black" stroke="black" points="175.13,-132.38 178.63,-142.38 182.13,-132.38 175.13,-132.38"/>
</g>
<!-- 3455009186560923575 -->
<g id="node3" class="node">
<title>3455009186560923575</title>
<polygon fill="none" stroke="black" points="231.25,-36 126,-36 126,0 231.25,0 231.25,-36"/>
<text text-anchor="middle" x="178.62" y="-9.5" font-family="Helvetica,sans-Serif" font-size="20.00">ReadCSV</text>
</g>
<!-- 3455009186560923575&#45;&gt;&#45;8724881498436001233 -->
<g id="edge2" class="edge">
<title>3455009186560923575&#45;&gt;&#45;8724881498436001233</title>
<path fill="none" stroke="black" d="M178.62,-36.3C178.62,-43.59 178.62,-52.27 178.62,-60.46"/>
<polygon fill="black" stroke="black" points="175.13,-60.38 178.63,-70.38 182.13,-60.38 175.13,-60.38"/>
</g>
</g>
</svg>
